<svg width="42" height="35" viewBox="0 0 42 35" fill="none" xmlns="http://www.w3.org/2000/svg">
<path d="M15.2717 17.4167H19.25C20.3334 17.4167 21.4062 17.6301 22.4071 18.0447C23.4081 18.4593 24.3175 19.067 25.0836 19.833C25.8497 20.5991 26.4574 21.5086 26.872 22.5095C27.2866 23.5105 27.5 24.5833 27.5 25.6667H14.6648V27.5H29.3315V25.6667C29.324 23.7164 28.7612 21.8087 27.709 20.1667H33C34.7332 20.1664 36.4309 20.6574 37.8963 21.5829C39.3617 22.5083 40.5348 23.8302 41.2793 25.3953C36.9435 31.1153 29.9237 34.8352 22 34.8352C16.9382 34.8352 12.65 33.7535 9.16667 31.856V14.7987C11.3969 15.1179 13.503 16.0211 15.2717 17.4167ZM7.33333 31.1667C7.33333 31.6529 7.14018 32.1192 6.79636 32.463C6.45255 32.8068 5.98623 33 5.5 33H1.83333C1.3471 33 0.880787 32.8068 0.536971 32.463C0.193154 32.1192 0 31.6529 0 31.1667V14.6667C0 14.1804 0.193154 13.7141 0.536971 13.3703C0.880787 13.0265 1.3471 12.8333 1.83333 12.8333H5.5C5.98623 12.8333 6.45255 13.0265 6.79636 13.3703C7.14018 13.7141 7.33333 14.1804 7.33333 14.6667V31.1667ZM31.1667 5.5C32.6254 5.5 34.0243 6.07946 35.0558 7.11091C36.0872 8.14236 36.6667 9.54131 36.6667 11C36.6667 12.4587 36.0872 13.8576 35.0558 14.8891C34.0243 15.9205 32.6254 16.5 31.1667 16.5C29.708 16.5 28.309 15.9205 27.2776 14.8891C26.2461 13.8576 25.6667 12.4587 25.6667 11C25.6667 9.54131 26.2461 8.14236 27.2776 7.11091C28.309 6.07946 29.708 5.5 31.1667 5.5ZM18.3333 0C19.792 0 21.191 0.579462 22.2224 1.61091C23.2539 2.64236 23.8333 4.04131 23.8333 5.5C23.8333 6.95869 23.2539 8.35764 22.2224 9.38909C21.191 10.4205 19.792 11 18.3333 11C16.8746 11 15.4757 10.4205 14.4442 9.38909C13.4128 8.35764 12.8333 6.95869 12.8333 5.5C12.8333 4.04131 13.4128 2.64236 14.4442 1.61091C15.4757 0.579462 16.8746 0 18.3333 0Z" fill="#34357B"/>
</svg>
