<svg width="183" height="42" viewBox="0 0 183 42" fill="none" xmlns="http://www.w3.org/2000/svg">
<path d="M16.3363 20.1285H20.1338C21.1679 20.1285 22.192 20.3322 23.1474 20.728C24.1029 21.1237 24.971 21.7038 25.7023 22.4351C26.4335 23.1663 27.0136 24.0345 27.4093 24.9899C27.8051 25.9453 28.0088 26.9694 28.0088 28.0035H15.757V29.7535H29.757V28.0035C29.7499 26.142 29.2127 24.3209 28.2083 22.7535H33.2588C34.9132 22.7532 36.5338 23.222 37.9326 24.1054C39.3314 24.9887 40.4511 26.2506 41.1618 27.7445C37.023 33.2045 30.3223 36.7553 22.7588 36.7553C17.927 36.7553 13.8338 35.7228 10.5088 33.9115V17.6295C12.6376 17.9343 14.6481 18.7964 16.3363 20.1285ZM8.75879 33.2535C8.75879 33.7177 8.57441 34.1628 8.24623 34.491C7.91804 34.8192 7.47292 35.0035 7.00879 35.0035H3.50879C3.04466 35.0035 2.59954 34.8192 2.27135 34.491C1.94316 34.1628 1.75879 33.7177 1.75879 33.2535V17.5035C1.75879 17.0394 1.94316 16.5943 2.27135 16.2661C2.59954 15.9379 3.04466 15.7535 3.50879 15.7535H7.00879C7.47292 15.7535 7.91804 15.9379 8.24623 16.2661C8.57441 16.5943 8.75879 17.0394 8.75879 17.5035V33.2535ZM31.5088 8.75354C32.9012 8.75354 34.2365 9.30666 35.2211 10.2912C36.2057 11.2758 36.7588 12.6112 36.7588 14.0035C36.7588 15.3959 36.2057 16.7313 35.2211 17.7159C34.2365 18.7004 32.9012 19.2535 31.5088 19.2535C30.1164 19.2535 28.781 18.7004 27.7965 17.7159C26.8119 16.7313 26.2588 15.3959 26.2588 14.0035C26.2588 12.6112 26.8119 11.2758 27.7965 10.2912C28.781 9.30666 30.1164 8.75354 31.5088 8.75354ZM19.2588 3.50354C20.6512 3.50354 21.9865 4.05666 22.9711 5.04123C23.9557 6.0258 24.5088 7.36115 24.5088 8.75354C24.5088 10.1459 23.9557 11.4813 22.9711 12.4659C21.9865 13.4504 20.6512 14.0035 19.2588 14.0035C17.8664 14.0035 16.531 13.4504 15.5465 12.4659C14.5619 11.4813 14.0088 10.1459 14.0088 8.75354C14.0088 7.36115 14.5619 6.0258 15.5465 5.04123C16.531 4.05666 17.8664 3.50354 19.2588 3.50354Z" fill="#34357B"/>
<path d="M49.796 14.6H44.28V10.428H60.296V14.6H54.752V30H49.796V14.6ZM61.8303 10.428H70.6223C72.9183 10.428 74.7103 11.0067 75.9983 12.164C77.305 13.3213 77.9583 14.9827 77.9583 17.148C77.9583 18.604 77.641 19.8453 77.0063 20.872C76.3716 21.8987 75.4756 22.664 74.3183 23.168L77.7903 30H72.6943L69.5863 23.868H66.7863V30H61.8303V10.428ZM69.7543 19.696C70.7436 19.696 71.509 19.5093 72.0503 19.136C72.5916 18.744 72.8623 18.0813 72.8623 17.148C72.8623 16.1773 72.5916 15.5147 72.0503 15.16C71.5276 14.7867 70.7623 14.6 69.7543 14.6H66.7863V19.696H69.7543ZM85.9541 10.428H90.8261L98.6381 30H93.5701L92.0021 25.968H84.7781L83.2101 30H78.1141L85.9541 10.428ZM90.7701 22.16L88.3901 15.58L85.9821 22.16H90.7701ZM100.604 10.428H107.632C109.778 10.428 111.654 10.82 113.26 11.604C114.865 12.388 116.097 13.5173 116.956 14.992C117.833 16.448 118.272 18.156 118.272 20.116C118.272 23.364 117.32 25.828 115.416 27.508C113.512 29.1693 110.87 30 107.492 30H100.604V10.428ZM107.912 25.828C109.61 25.828 110.908 25.3147 111.804 24.288C112.718 23.2613 113.176 21.8707 113.176 20.116C113.176 18.5107 112.718 17.1947 111.804 16.168C110.908 15.1227 109.666 14.6 108.08 14.6H105.56V25.828H107.912ZM120.237 10.428H134.125V14.6H125.193V18.268H131.717V22.16H125.193V25.828H134.125V30H120.237V10.428ZM142.2 30.42C140.968 30.42 139.745 30.2987 138.532 30.056C137.319 29.832 136.32 29.5147 135.536 29.104V24.652C136.544 25.1747 137.589 25.5667 138.672 25.828C139.773 26.0893 140.819 26.22 141.808 26.22C142.723 26.22 143.413 26.08 143.88 25.8C144.347 25.52 144.58 25.1187 144.58 24.596C144.58 24.204 144.449 23.868 144.188 23.588C143.945 23.2893 143.581 23.0187 143.096 22.776C142.611 22.5333 141.855 22.1973 140.828 21.768C139.017 21.0027 137.701 20.1533 136.88 19.22C136.059 18.2867 135.648 17.1387 135.648 15.776C135.648 14.656 135.956 13.6573 136.572 12.78C137.207 11.9027 138.084 11.2213 139.204 10.736C140.324 10.2507 141.612 10.008 143.068 10.008C144.263 10.008 145.327 10.1013 146.26 10.288C147.193 10.4747 148.089 10.7733 148.948 11.184V15.524C147.305 14.6653 145.653 14.236 143.992 14.236C143.096 14.236 142.377 14.3853 141.836 14.684C141.313 14.964 141.052 15.3747 141.052 15.916C141.052 16.4573 141.323 16.896 141.864 17.232C142.405 17.568 143.404 18.0253 144.86 18.604C146.185 19.1453 147.212 19.6773 147.94 20.2C148.687 20.7227 149.228 21.3293 149.564 22.02C149.9 22.7107 150.068 23.588 150.068 24.652C150.068 26.4627 149.405 27.8813 148.08 28.908C146.773 29.916 144.813 30.42 142.2 30.42ZM152.037 10.428H165.925V14.6H156.993V18.268H163.517V22.16H156.993V25.828H165.925V30H152.037V10.428ZM167.897 10.428H181.785V14.6H172.853V18.268H179.377V22.16H172.853V25.828H181.785V30H167.897V10.428Z" fill="#34357B"/>
</svg>
